PathFileType	3	(X/Y/Z)	D:\Vicon Setup\UG\Test1\New Session\NewSession16.trc
DataRate	CameraRate	NumFrames	NumMarkers	Units	OrigDataRate	OrigDataStartFrame	OrigNumFrames
100.0	100.0	5	27	mm	100.0	416	357	
Frame#	Time	Sternum			LShoulder			RShoulder			LASIS			RASIS			RPSIS			LPSIS			RKneeLateral			RKneeMedial			RFibulaHead			RMidShank			RAnkleLateral			RAnkleMedial			RHeel			RMT5			RMT2			RToe			LKneeLateral			LKneeMedial			LFibulaHead			LMidShank			LAnkleLateral			LAnkleMedial			LHeel			LMT5			LMT2			LToe			
		X1	Y1	Z1	X2	Y2	Z2	X3	Y3	Z3	X4	Y4	Z4	X5	Y5	Z5	X6	Y6	Z6	X7	Y7	Z7	X8	Y8	Z8	X9	Y9	Z9	X10	Y10	Z10	X11	Y11	Z11	X12	Y12	Z12	X13	Y13	Z13	X14	Y14	Z14	X15	Y15	Z15	X16	Y16	Z16	X17	Y17	Z17	X18	Y18	Z18	X19	Y19	Z19	X20	Y20	Z20	X21	Y21	Z21	X22	Y22	Z22	X23	Y23	Z23	X24	Y24	Z24	X25	Y25	Z25	X26	Y26	Z26	X27	Y27	Z27	
416	4.15	-211.5974	1387.3271	-2081.6636	-0.51376039	1455.0287	-2073.1562	-323.73999	1409.4607	-2236.7639	-31.575665	987.64502	-2062.1279	-280.76828	999.91595	-2114.5193	-183.80435	1031.406	-2263.0046	-58.385731	1038.6897	-2238.0972	-295.64697	539.30463	-2013.109	-178.6178	546.39557	-1955.8748	-290.72247	458.08621	-1998.611	-197.94025	317.17163	-1924.1322	-150.04652	152.87575	-1896.6896	-195.82697	99.964684	-1961.328	-111.02045	97.548347	-2004.2004	-250.55927	29.599323	-1822.2618	-201.19949	77.433617	-1807.7266	-213.53528	69.131866	-1763.192	24.853596	520.35468	-2231.5276	-97.38588	493.45688	-2222.1042	30.7083	489.75305	-2283.4753	-43.385864	367.59525	-2386.6626	-2.7123134	318.58725	-2598.6587	-73.962372	276.61917	-2553.3025	-82.151596	364.4613	-2631.7251	48.418789	181.16882	-2642.8345	-7.3330793	159.42104	-2597.0935	-8.319211	120.97612	-2597.0308
417	4.16	-212.76358	1379.2594	-2055.5969	-2.044991	1446.8622	-2046.9548	-325.5513	1400.1816	-2210.9443	-31.826738	981.02417	-2034.4441	-280.99585	991.73846	-2087.6558	-182.47905	1021.0422	-2236.3325	-57.280708	1028.5479	-2211.1023	-296.63724	531.84131	-1984.0299	-181.33003	542.2608	-1922.5879	-290.7153	450.77255	-1971.3081	-197.71368	309.23172	-1897.5184	-146.32608	145.60915	-1874.4452	-190.36366	101.1265	-1946.0168	-99.265984	103.57825	-1984.2931	-254.79282	30.081974	-1817.2313	-197.90527	63.199879	-1790.5145	-210.98239	47.297508	-1747.1952	26.942514	511.34796	-2192.2942	-94.737427	484.93393	-2184.4077	33.139996	482.0658	-2244.125	-40.080593	364.87704	-2353.0039	0.67195421	327.23892	-2566.5176	-70.708923	282.63654	-2523.4241	-78.885826	373.21365	-2599.1116	54.349979	192.28932	-2613.877	-1.6141658	168.42953	-2569.6343	-2.6052012	129.5676	-2570.9634
418	4.17	-214.19128	1369.8928	-2029.5153	-3.4408345	1437.8883	-2021.0924	-327.52054	1389.7311	-2184.738	-31.56196	973.84064	-2006.1791	-280.89413	982.90637	-2061.3418	-181.38577	1010.1508	-2210.2898	-56.163025	1017.5139	-2184.345	-295.94577	523.33734	-1956.1984	-184.21095	535.71393	-1888.8468	-290.14804	442.48727	-1943.0758	-191.96455	301.82404	-1876.0039	-126.65509	140.82036	-1867.0851	-176.64117	103.34174	-1941.0653	-87.158493	94.725754	-1983.123	-249.26308	34.87252	-1815.344	-192.24268	60.535637	-1785.0648	-206.95969	42.730251	-1743.9303	29.036327	501.15002	-2151.7891	-93.059395	476.03253	-2146.179	35.624821	473.05432	-2203.3628	-39.239269	364.10736	-2317.5066	4.2533545	334.82925	-2531.8416	-67.417839	288.1546	-2491.2793	-75.21196	381.59305	-2563.9006	59.336006	202.18265	-2582.4011	2.5141795	176.4713	-2540.2063	2.2229812	137.70273	-2542.499
419	4.18	-215.67329	1359.2296	-2003.2649	-4.510004	1428.5018	-1995.5275	-330.04099	1378.5819	-2158.5449	-31.381783	965.65039	-1978.4233	-280.79993	973.18506	-2035.7836	-180.61987	998.68915	-2185.2605	-55.184761	1005.765	-2158.1382	-295.33951	514.99512	-1927.7124	-185.91931	527.14917	-1855.4868	-288.05457	433.65442	-1912.991	-178.56284	296.28064	-1863.9351	-114.46227	138.2979	-1868.0736	-167.85419	101.81139	-1939.4513	-79.697456	87.894142	-1982.0043	-244.96347	38.10181	-1815.5203	-188.48537	58.504158	-1783.255	-205.27083	40.345661	-1743.3138	30.706112	490.24207	-2110.2131	-91.181717	465.90598	-2105.7556	37.999336	463.69748	-2161.4788	-37.570713	361.41147	-2280.0667	7.6566978	341.29477	-2494.5347	-63.87619	293.93195	-2456.7488	-71.340988	389.28732	-2525.9346	64.058525	211.10075	-2548.2029	6.5027571	183.74098	-2507.8342	6.590486	145.04744	-2511.0176
420	4.19	-216.9155	1347.3802	-1976.8589	-5.2796779	1419.1716	-1970.1272	-332.53137	1367.3693	-2132.3921	-31.5096	956.91089	-1951.5569	-281.42334	963.55713	-2010.5198	-180.11394	986.52521	-2161.177	-54.179379	993.5589	-2132.4629	-297.00598	505.8006	-1897.1691	-187.01668	519.57977	-1822.4858	-285.94073	426.67517	-1885.8727	-171.82173	287.91306	-1851.3492	-109.08658	131.91785	-1863.2123	-163.69635	99.436325	-1938.8364	-76.738106	80.96212	-1982.9639	-243.53262	37.750526	-1814.8219	-186.19328	56.958405	-1782.4263	-204.15645	39.246956	-1742.4916	32.446762	479.77634	-2067.76	-89.34169	455.72818	-2063.5635	40.149555	454.74438	-2118.1653	-35.291183	358.96634	-2240.6064	11.144186	346.80542	-2454.5371	-60.707752	298.66882	-2419.1326	-67.323944	396.11215	-2485.4775	68.383118	218.774	-2510.8613	10.492981	190.37883	-2471.7703	10.722065	151.8186	-2476.0547
